<?xml version="1.0" encoding="utf-8"?>
<!-- Generator: Adobe Illustrator 19.0.0, SVG Export Plug-In . SVG Version: 6.00 Build 0)  -->
<svg version="1.1" id="Camada_1" xmlns="http://www.w3.org/2000/svg" xmlns:xlink="http://www.w3.org/1999/xlink"
	 viewBox="0 0 44 24" fill="#820ad1" style="enable-background:new 0 0 44 24;" xml:space="preserve">
<g>
	<path d="M8.5,2.7c1.3-1.4,3.1-2.2,5.2-2.2c4,0,6.7,3,7.3,7.3c0.2,1.4,0.2,3.4,0.2,5.7c0,0.2,0,0.5,0,0.7v8.7h-5.5
		v-6.4c0,0,0-5.4-0.1-6.5C15.4,5.5,12.7,2.7,8.5,2.7c-1.2,1.3-1.9,2.9-2,5.3c0,0.4,0,1.5,0,3.2c0,0.9,0,1.7,0,2.7c0,4.2,0,9.1,0,9.1
		H1V13c0-0.4,0-0.7,0-1.1c0-0.7,0-1.4,0-2.1c0.1-1.1,0.3-2.3,0.8-3.3C3,4.2,5.6,2.6,8.3,2.6C8.3,2.7,8.5,2.7,8.5,2.7z"/>
	<path id="XMLID_1_" d="M43,14c0-0.7,0-1.4,0-2.1c0-0.4,0-0.7,0-1.1V1.1h-5.5c0,0,0,4.9,0,9.1c0,1,0,1.9,0,2.7c0,1.6,0,2.8,0,3.1
		c-0.1,2.5-0.8,4-2,5.3c-4.1,0-6.8-2.8-7-7.3c0-1.1-0.1-3.5-0.1-6.5V1H23v8.7c0,0.3,0,0.5,0,0.7c0,2.3,0,4.3,0.2,5.7
		c0.5,4.4,3.1,7.3,7.3,7.3c2.1,0,3.8-0.8,5.2-2.2c0.1,0,0.2,0,0.3,0c2.7,0,5.3-1.5,6.5-3.9C42.7,16.3,42.9,15.1,43,14z"/>
</g>
</svg>
